<svg width="235" height="235" viewBox="0 0 235 235" fill="none" xmlns="http://www.w3.org/2000/svg">
<circle cx="117.5" cy="117.5" r="117.5" fill="#515151"/>
<path d="M76.22 128V106.7H80.36V124.37H91.22V128H76.22ZM102.382 128.15C100.822 128.15 99.4019 127.85 98.1219 127.25C96.8619 126.63 95.7719 125.82 94.8519 124.82C93.9519 123.8 93.2519 122.64 92.7519 121.34C92.2519 120.04 92.0019 118.71 92.0019 117.35C92.0019 115.93 92.2619 114.57 92.7819 113.27C93.3219 111.97 94.0519 110.82 94.9719 109.82C95.9119 108.82 97.0219 108.03 98.3019 107.45C99.5819 106.85 100.972 106.55 102.472 106.55C104.012 106.55 105.412 106.87 106.672 107.51C107.952 108.13 109.042 108.95 109.942 109.97C110.842 110.99 111.542 112.15 112.042 113.45C112.542 114.75 112.792 116.07 112.792 117.41C112.792 118.83 112.532 120.19 112.012 121.49C111.492 122.77 110.772 123.91 109.852 124.91C108.932 125.89 107.832 126.68 106.552 127.28C105.272 127.86 103.882 128.15 102.382 128.15ZM96.2019 117.35C96.2019 118.27 96.3419 119.16 96.6219 120.02C96.9019 120.88 97.3019 121.64 97.8219 122.3C98.3619 122.96 99.0119 123.49 99.7719 123.89C100.552 124.29 101.432 124.49 102.412 124.49C103.412 124.49 104.292 124.29 105.052 123.89C105.832 123.47 106.482 122.92 107.002 122.24C107.542 121.56 107.942 120.8 108.202 119.96C108.482 119.1 108.622 118.23 108.622 117.35C108.622 116.43 108.472 115.54 108.172 114.68C107.892 113.82 107.482 113.06 106.942 112.4C106.422 111.74 105.772 111.22 104.992 110.84C104.232 110.44 103.372 110.24 102.412 110.24C101.412 110.24 100.522 110.45 99.7419 110.87C98.9619 111.27 98.3119 111.81 97.7919 112.49C97.2719 113.15 96.8719 113.91 96.5919 114.77C96.3319 115.61 96.2019 116.47 96.2019 117.35ZM131.658 125.6C129.958 127.3 127.978 128.15 125.718 128.15C124.318 128.15 122.998 127.87 121.758 127.31C120.538 126.75 119.468 125.98 118.548 125C117.648 124.02 116.928 122.87 116.388 121.55C115.868 120.21 115.608 118.77 115.608 117.23C115.608 115.77 115.868 114.4 116.388 113.12C116.928 111.82 117.658 110.69 118.578 109.73C119.518 108.75 120.618 107.98 121.878 107.42C123.138 106.84 124.508 106.55 125.988 106.55C127.988 106.55 129.698 106.97 131.118 107.81C132.558 108.65 133.638 109.78 134.358 111.2L131.268 113.48C130.728 112.42 129.968 111.61 128.988 111.05C128.028 110.49 126.978 110.21 125.838 110.21C124.938 110.21 124.108 110.4 123.348 110.78C122.608 111.16 121.968 111.68 121.428 112.34C120.908 113 120.498 113.76 120.198 114.62C119.918 115.48 119.778 116.39 119.778 117.35C119.778 118.35 119.938 119.29 120.258 120.17C120.578 121.03 121.018 121.78 121.578 122.42C122.138 123.06 122.798 123.57 123.558 123.95C124.338 124.31 125.178 124.49 126.078 124.49C128.138 124.49 129.998 123.52 131.658 121.58V120.08H127.368V117.05H135.078V128H131.658V125.6ZM148.596 128.15C147.036 128.15 145.616 127.85 144.336 127.25C143.076 126.63 141.986 125.82 141.066 124.82C140.166 123.8 139.466 122.64 138.966 121.34C138.466 120.04 138.216 118.71 138.216 117.35C138.216 115.93 138.476 114.57 138.996 113.27C139.536 111.97 140.266 110.82 141.186 109.82C142.126 108.82 143.236 108.03 144.516 107.45C145.796 106.85 147.186 106.55 148.686 106.55C150.226 106.55 151.626 106.87 152.886 107.51C154.166 108.13 155.256 108.95 156.156 109.97C157.056 110.99 157.756 112.15 158.256 113.45C158.756 114.75 159.006 116.07 159.006 117.41C159.006 118.83 158.746 120.19 158.226 121.49C157.706 122.77 156.986 123.91 156.066 124.91C155.146 125.89 154.046 126.68 152.766 127.28C151.486 127.86 150.096 128.15 148.596 128.15ZM142.416 117.35C142.416 118.27 142.556 119.16 142.836 120.02C143.116 120.88 143.516 121.64 144.036 122.3C144.576 122.96 145.226 123.49 145.986 123.89C146.766 124.29 147.646 124.49 148.626 124.49C149.626 124.49 150.506 124.29 151.266 123.89C152.046 123.47 152.696 122.92 153.216 122.24C153.756 121.56 154.156 120.8 154.416 119.96C154.696 119.1 154.836 118.23 154.836 117.35C154.836 116.43 154.686 115.54 154.386 114.68C154.106 113.82 153.696 113.06 153.156 112.4C152.636 111.74 151.986 111.22 151.206 110.84C150.446 110.44 149.586 110.24 148.626 110.24C147.626 110.24 146.736 110.45 145.956 110.87C145.176 111.27 144.526 111.81 144.006 112.49C143.486 113.15 143.086 113.91 142.806 114.77C142.546 115.61 142.416 116.47 142.416 117.35Z" fill="white"/>
</svg>
